<svg xmlns="http://www.w3.org/2000/svg" xmlns:xlink="http://www.w3.org/1999/xlink" id="Capa_1" data-name="Capa 1" width="908.8637" height="219.6759" viewBox="0 0 908.8637 219.6759"><defs><style>.cls-1{fill:#162159;}.cls-2{fill:#ff039f;}.cls-3{fill:url(#Degradado_sin_nombre_124);}.cls-4{fill:url(#Degradado_sin_nombre_640);}.cls-5{fill:#ff00e8;}.cls-6{fill:url(#Degradado_sin_nombre_214);}.cls-7{fill:url(#Degradado_sin_nombre_126);}</style><linearGradient id="Degradado_sin_nombre_124" x1="88.6809" y1="241.984" x2="252.5504" y2="73.9513" gradientUnits="userSpaceOnUse"><stop offset="0" stop-color="#2a4aff"></stop><stop offset="0.7578" stop-color="#ff01e9"></stop></linearGradient><linearGradient id="Degradado_sin_nombre_640" x1="89.4424" y1="74.8155" x2="292.7763" y2="74.8155" gradientUnits="userSpaceOnUse"><stop offset="0.0978" stop-color="#ff039f"></stop><stop offset="1" stop-color="#8e035b"></stop></linearGradient><linearGradient id="Degradado_sin_nombre_214" x1="35.5786" y1="240.6717" x2="106.8539" y2="167.5857" gradientUnits="userSpaceOnUse"><stop offset="0" stop-color="#2a25ff"></stop><stop offset="0.7578" stop-color="#00b3ff"></stop></linearGradient><linearGradient id="Degradado_sin_nombre_126" x1="283.8576" y1="14.9843" x2="203.9046" y2="85.9682" gradientUnits="userSpaceOnUse"><stop offset="0" stop-color="#aa009c"></stop><stop offset="0.6222" stop-color="#ff01e9"></stop></linearGradient></defs><path class="cls-1" d="M406.8915,74.9343l-26.294,76.55a20.0945,20.0945,0,0,1-8.7982,11.0495,27.709,27.709,0,0,1-15.0923,4.1431H257.08l26.1126-76.5513a20.5766,20.5766,0,0,1,8.8888-11.1467,28.0763,28.0763,0,0,1,15.183-4.0444ZM305.784,143.5929h36.6665l15.74-45.7724H321.1549Z" transform="translate(-15.5768 -20.0334)"></path><path class="cls-1" d="M530.8237,98.1153H448.2325l-3.518,11.2471h68.5161L506.01,128.8942H437.6786l-5.0016,15.1911h81.8493l-7.7777,22.4926H383.9761l24.9249-73.5A26.8722,26.8722,0,0,1,434.35,74.8355H538.6014Z" transform="translate(-15.5768 -20.0334)"></path><path class="cls-1" d="M515.686,166.6767l31.111-91.7424h40.9263l25.3676,45.7724,15.5555-45.7724h40.7384l-31.1077,91.7424H597.5354l-25.5522-45.97-15.5555,45.97Z" transform="translate(-15.5768 -20.0334)"></path><path class="cls-1" d="M793.317,98.2141H710.729l-3.5179,11.2471h68.5161l-7.2239,19.5319H700.1719l-4.9984,15.191h81.8494l-7.7777,22.4926H646.47l22.6421-66.7688a36.7879,36.7879,0,0,1,34.8393-24.9736h97.1438Z" transform="translate(-15.5768 -20.0334)"></path><path class="cls-1" d="M881.48,97.8205,860,166.6767H820l21.48-68.8562H801.4835l6.1094-22.8862H924.4406l-9.2582,22.8862Z" transform="translate(-15.5768 -20.0334)"></path><path class="cls-2" d="M564.8,189.6c-14.01,16.76-20.6078,24.3552-34.1969,41.5086l-4.6171,0c-2.3341-17.1664-3.713-24.7619-5.6271-41.5086h4.8753c1.6272,14.5232,2.7433,21.2378,4.7612,35.8615,11.8032-14.6137,17.6083-21.3292,29.8033-35.8613Z" transform="translate(-15.5768 -20.0334)"></path><path class="cls-2" d="M572.1225,193.4161c-2.1275,5.9175-3.1565,8.8239-5.19,14.67l23.2668.02c-.4988,1.4806-.747,2.2207-1.242,3.7029l-23.2643-.0232c-2.1028,6.1139-3.1345,9.169-5.2147,15.4426l26.9806.015c-.5163,1.54-.7743,2.313-1.2909,3.868l-31.6633-.0018c5.6176-17.0911,8.2652-24.7488,14.3234-41.51l30.7792,0c-.5592,1.5333-.8367,2.2967-1.3879,3.8193Z" transform="translate(-15.5768 -20.0334)"></path><path class="cls-2" d="M606.4054,189.6h4.68c-5.499,15.24-7.9843,22.3648-13.0526,37.6495l25.1173.014c-.5151,1.5341-.7722,2.3037-1.2865,3.85l-29.798-.0018C597.6537,214.1191,600.3474,206.3722,606.4054,189.6Z" transform="translate(-15.5768 -20.0334)"></path><path class="cls-2" d="M626.08,214.1456c1.7053-13.5629,13.9-24.9059,30.4438-24.9059,13.2712,0,19.7733,7.0765,18.4159,17.2871-1.8045,13.5739-13.6608,24.95-30.1931,24.95C631.4834,231.4764,624.7974,224.3467,626.08,214.1456ZM670.1737,206.7c1.0647-8.0263-3.8382-13.513-14.675-13.5141-13.3353-.0015-23.3,9.5255-24.7118,20.7275-1.0181,8.0787,4.0458,13.5962,14.8739,13.602C658.9857,227.5229,668.6788,217.97,670.1737,206.7Z" transform="translate(-15.5768 -20.0334)"></path><path class="cls-2" d="M677.1085,214.1992c1.7255-13.5745,13.9365-24.9595,30.7364-24.9595,7.18,0,12.6281,2.166,15.078,6.1037-1.4907,1.0966-2.2352,1.644-3.723,2.7373-2.3677-3.2128-6.4187-4.8885-12.3179-4.8891-13.6559-.0014-23.638,9.5632-25.0668,20.7757-1.03,8.0863,4.0387,13.57,14.9941,13.5757A22.7785,22.7785,0,0,0,711.62,222.63c.96,1.1608,1.4413,1.7416,2.4041,2.9039-4.4321,3.8512-11.0118,5.9427-18.0588,5.9427C682.64,231.4764,675.8106,224.4092,677.1085,214.1992Z" transform="translate(-15.5768 -20.0334)"></path><path class="cls-2" d="M731.71,189.6005h4.68c-6.0707,16.8114-8.9312,24.8672-14.4333,41.5186l-4.6765,0C722.7858,214.4552,725.64,206.4105,731.71,189.6005Z" transform="translate(-15.5768 -20.0334)"></path><path class="cls-2" d="M746.9832,189.6005l17.056,0c13.5288,0,20.1312,6.8029,18.74,17.01-1.9809,14.5378-14.1,24.5111-30.9514,24.51l-19.2863-.0011C738.0373,214.4961,740.9115,206.4152,746.9832,189.6005Zm5.4123,37.7347c14.2233.008,23.9873-8.568,25.6167-20.55,1.0892-8.0091-3.6994-13.3461-15.0481-13.3474l-12.6942-.0014c-4.9079,13.6849-7.2584,20.3477-11.777,33.8912Z" transform="translate(-15.5768 -20.0334)"></path><path class="cls-2" d="M812.9673,220.13l-25.0545-.0258c-3.6521,4.41-5.4659,6.61-9.0687,11.018l-5.1274,0c13.6709-16.515,20.7064-24.6881,34.9894-41.5212h4.6821c2.1318,16.8346,3.2556,25.1278,6.0233,41.5237l-4.7416,0C813.9591,226.7409,813.62,224.5417,812.9673,220.13Zm-.4477-3.5413c-1.2873-8.9356-1.8758-13.4276-2.9971-22.4879-7.574,9.0591-11.3289,13.5386-18.7278,22.4646Z" transform="translate(-15.5768 -20.0334)"></path><path class="cls-2" d="M837.8078,189.6011l17.0578,0c13.53,0,20.1321,6.827,18.7155,17.08-2.0177,14.6031-14.1125,24.4458-30.9749,24.4448l-19.2963-.0011C828.7437,214.74,831.7327,206.4429,837.8078,189.6011Zm5.3557,37.7847c14.2308.0079,23.9875-8.4939,25.648-20.5294,1.11-8.0448-3.6712-13.407-15.0216-13.4084l-12.6977-.0014c-4.9258,13.7311-7.345,20.5191-11.8382,33.9315Z" transform="translate(-15.5768 -20.0334)"></path><path class="cls-2" d="M481.2936,239.7093H460.6684l7.7891-21.976H447.8324l4.9579-14.43h20.6251l7.17-21.9759h20.6252L494.13,203.3035h20.6251l-5.0453,14.43H489.0843Z" transform="translate(-15.5768 -20.0334)"></path><path class="cls-3" d="M221.9268,120.3372l-66.5555,51.8h97.8215l-5.8493,17.2509A51.351,51.351,0,0,1,198.712,224.25H25.8557a7.3658,7.3658,0,0,1-6.9757-9.731v0a130.3093,130.3093,0,0,1,51.7471-66.9914l8.7779-5.78Z" transform="translate(-15.5768 -20.0334)"></path><path class="cls-4" d="M122.6147,75.0323a5.2294,5.2294,0,1,1,0-10.4587h4.8044a5.2292,5.2292,0,0,0,4.9523-3.55l0,0a5.2294,5.2294,0,0,0-4.9524-6.9087H94.6718a5.2294,5.2294,0,1,1,0-10.4587h23.3337a5.23,5.23,0,0,0,4.9525-3.55h0a5.2294,5.2294,0,0,0-4.9525-6.9086H104.4662a5.2294,5.2294,0,1,1,0-10.4587H282.0121A10.7661,10.7661,0,0,1,291.85,37.85a183.5514,183.5514,0,0,1-55.2142,70.7983l-7.2994,5.681L103.2,126.8925l64.4629-42.4446a5.2293,5.2293,0,0,0-2.8758-9.5969Z" transform="translate(-15.5768 -20.0334)"></path><rect class="cls-5" x="37.9443" y="23.6225" width="30.3478" height="10.4587" rx="4.7569"></rect><rect class="cls-5" x="55.1617" y="2.7051" width="26.2608" height="10.4587" rx="4.7569"></rect><rect class="cls-5" x="80.8232" y="44.3234" width="17.6187" height="10.4587" rx="4.7569"></rect><path class="cls-6" d="M114.4046,224.25Q89.4994,225.94,64.594,226.517c-8.3017.2687-16.6035.3284-24.9053.4865l-12.4526.0931-1.6229-.0031a10.5631,10.5631,0,0,1-2.1352-.2612,10.2856,10.2856,0,0,1-7.8772-9.2578,10.6635,10.6635,0,0,1,.6044-4.189l1.1-2.9862c.6983-2.0041,1.5557-3.9462,2.3638-5.9068q2.5034-5.8488,5.575-11.4282a126.6651,126.6651,0,0,1,14.5446-20.765A118.2771,118.2771,0,0,1,58.167,155.0107a180.4627,180.4627,0,0,1,21.238-13.2633c-6.5713,5.1322-13.445,9.7958-19.4117,15.4637a137.07,137.07,0,0,0-16.6849,17.9748,140.1919,140.1919,0,0,0-13.2058,20.506c-1.8522,3.6161-3.6433,7.2631-5.184,11.0212-.7516,1.8858-1.5542,3.7514-2.1993,5.6772l-1.0217,2.8674a4.9377,4.9377,0,0,0-.28,1.9266,4.4549,4.4549,0,0,0,1.7064,3.2452,4.5094,4.5094,0,0,0,1.6745.8291,4.85,4.85,0,0,0,.9478.1256l1.49.0184,12.4526.0931c8.3018.1581,16.6036.2178,24.9053.4866Q89.4994,222.558,114.4046,224.25Z" transform="translate(-15.5768 -20.0334)"></path><path class="cls-7" d="M229.336,114.329C241.3,103.952,252.6,93.0823,262.2994,80.8558a200.7208,200.7208,0,0,0,24.6961-39.4231c.77-1.7093,1.7369-3.6333,2.36-5.16a7.83,7.83,0,0,0,.414-4.2467,8.0924,8.0924,0,0,0-5.5253-6.2042,9.06,9.06,0,0,0-2.1733-.3681l-2.9377-.0566-5.9142-.1031-11.8284-.2794q-23.6568-.5718-47.3136-2.2761,23.6568-1.7007,47.3136-2.2761l11.8284-.2794,5.9142-.1032,2.9762-.0464a14.5051,14.5051,0,0,1,3.6605.48,13.5463,13.5463,0,0,1,8.9807,17.8014c-.8489,2.1276-1.6539,3.7345-2.4915,5.6239a169.19,169.19,0,0,1-26.4977,39.8458A162.614,162.614,0,0,1,248.59,100.3956,221.6087,221.6087,0,0,1,229.336,114.329Z" transform="translate(-15.5768 -20.0334)"></path></svg> 